# xmcd
#
# Track frame offsets:
# 150
# 13347
# 27607
# 43990
# 57617
# 80430
# 94215
# 104915
# 115457
# 129152
# 144940
# 158340
# 168375
# 184717
#
# Disc length: 2760 seconds
#
#
# Revision: 0
# Processed by: cddbd v1.5.1PL2 Copyright (c) Steve Scherf et al.
# Submitted via: FreeRIP 2.944 
#
DISCID=c40ac60e
DTITLE=Various Artist - Lindessa Love ballads
DYEAR=1995
DGENRE=Ballad
TTITLE0=When a man loves a woman
TTITLE1=Moments and Whatnauts
TTITLE2=Lady Love
TTITLE3=Raindrops keep falling on my head
TTITLE4=There's a kind of hush
TTITLE5=The one and only
TTITLE6=All I have to do is dream
TTITLE7=Hurt
TTITLE8=United we stand
TTITLE9=Darlin´be home soon
TTITLE10=(Your love keeps lifting me) Higher and Higher
TTITLE11=I´m sorry
TTITLE12=Don´t give up on us
TTITLE13=Solitaire
EXTD=
EXTT0=Percy sledge
EXTT1=Girls
EXTT2=Lou Rawls
EXTT3=B.J. Thomas
EXTT4=Peter noone of herman´s Hermits
EXTT5=Gladys knight and the Pips
EXTT6=The Everly Brothers
EXTT7=Timi Yuro
EXTT8=Brotherhood of Man
EXTT9=Lovin´Spoonful
EXTT10=Jackie Wilson
EXTT11=Brenda Lee
EXTT12=David Soul
EXTT13=Neil Sedaka
PLAYORDER=
